IKResults
version=1
nRows=7
nColumns=40
inDegrees=yes

Units are S.I. units (second, meters, Newtons, ...)
Angles are in degrees.

endheader
time	pelvis_tilt	pelvis_list	pelvis_rotation	pelvis_tx	pelvis_ty	pelvis_tz	hip_flexion_r	hip_adduction_r	hip_rotation_r	knee_angle_r	knee_angle_r_beta	ankle_angle_r	subtalar_angle_r	mtp_angle_r	hip_flexion_l	hip_adduction_l	hip_rotation_l	knee_angle_l	knee_angle_l_beta	ankle_angle_l	subtalar_angle_l	mtp_angle_l	lumbar_extension	lumbar_bending	lumbar_rotation	arm_flex_r	arm_add_r	arm_rot_r	elbow_flex_r	pro_sup_r	wrist_flex_r	wrist_dev_r	arm_flex_l	arm_add_l	arm_rot_l	elbow_flex_l	pro_sup_l	wrist_flex_l	wrist_dev_l
      0.89000000	     15.08148519	     -7.24474504	      4.23363593	     -0.54390525	      0.94644345	      1.45087327	     -2.60172827	      9.48742173	     -9.34919814	    -17.55309828	     -0.30635936	      2.39085743	     -1.32079178	     -5.09976859	    -24.79604427	      8.16391692	     -2.42511741	    -35.65083513	     -0.62222445	      2.08022334	     15.16360634	     -4.43338871	    -22.25331252	      9.28676896	     -8.63147893	     -5.16940756	     -9.86919407	      3.23876537	     25.54241117	     89.95437384	      0.00000000	      0.00000000	     11.36107754	      5.92596363	      4.00042497	     34.03515593	     89.95437384	      0.00000000	      0.00000000
      0.90000000	     15.33701351	     -6.96462232	      4.09630873	     -0.53747012	      0.94737649	      1.45206453	     -3.27393509	      9.26608810	     -9.29265558	    -17.75508713	     -0.30988473	      2.64241204	     -1.32626375	     -4.99624525	    -24.36015015	      7.78641049	     -2.60445738	    -37.30787430	     -0.65114524	      1.76855952	     15.00287192	     -4.30038886	    -22.66502151	      8.98935400	     -8.26212341	     -4.97658267	     -9.86631199	      3.44456853	     25.80546010	     89.95437384	      0.00000000	      0.00000000	     11.31809476	      5.89001658	      3.99931846	     33.63201244	     89.95437384	      0.00000000	      0.00000000
      0.91000000	     15.54576261	     -6.72796755	      4.42959670	     -0.53094183	      0.94812382	      1.45267869	     -4.16828539	      9.21191735	     -9.24763078	    -17.38443052	     -0.30341555	      3.18281688	     -1.24381165	     -4.89290643	    -23.67349384	      7.65154765	     -3.06495327	    -39.08187677	     -0.68210743	      1.49407686	     15.49617023	     -4.06045693	    -22.83726704	      8.87041730	     -8.29471891	     -4.83839905	     -9.94249665	      4.05352751	     26.05523687	     89.95437384	      0.00000000	      0.00000000	     11.50078626	      5.87109462	      3.90548142	     32.59393782	     89.95437384	      0.00000000	      0.00000000
      0.92000000	     15.66864491	     -6.60670793	      4.56577909	     -0.52472552	      0.94871502	      1.45335335	     -4.84386803	      9.17632386	     -9.41025598	    -17.16079536	     -0.29951238	      3.42366036	     -1.10008638	     -4.69847710	    -22.93786552	      7.47270968	     -3.49095125	    -40.76785316	     -0.71153327	      1.79117672	     16.02719187	     -3.70161700	    -22.99673020	      8.84767797	     -8.15550921	     -4.63899021	    -10.13631065	      4.75765887	     26.39825161	     89.95437384	      0.00000000	      0.00000000	     11.53622941	      5.80759619	      3.98107734	     31.85827785	     89.95437384	      0.00000000	      0.00000000
      0.93000000	     15.84184124	     -6.47923970	      4.74140694	     -0.51840804	      0.94931670	      1.45425688	     -5.56080082	      9.16948078	     -9.49472530	    -17.01448697	     -0.29695882	      3.65875220	     -0.89049610	     -4.53397643	    -22.25922290	      7.43661381	     -3.56728861	    -42.24837612	     -0.73737327	      2.28791653	     16.66776478	     -3.30395764	    -23.17139100	      8.76834669	     -7.96160279	     -4.46005737	    -10.22478418	      5.34780715	     26.60373214	     89.95437384	      0.00000000	      0.00000000	     11.55284979	      5.73573057	      4.15170804	     31.17025620	     89.95437384	      0.00000000	      0.00000000
      0.94000000	     16.08783588	     -6.22953605	      4.64549858	     -0.51236647	      0.95007804	      1.45547111	     -6.28769426	      8.98565768	     -9.61909908	    -17.00727700	     -0.29683298	      3.91669157	     -0.85403547	     -4.47971389	    -21.73398734	      7.23832001	     -3.25680252	    -43.44243275	     -0.75821349	      2.86587972	     16.94688057	     -3.17358500	    -23.52315215	      8.47809730	     -7.61749137	     -4.16163431	    -10.23049746	      5.56500462	     26.76949759	     89.95437384	      0.00000000	      0.00000000	     11.45801497	      5.78325530	      4.25589272	     30.72102587	     89.95437384	      0.00000000	      0.00000000
      0.95000000	     16.19109784	     -6.21281852	      4.78401637	     -0.50601993	      0.95060061	      1.45621038	     -7.01917989	      9.10905247	     -9.40787737	    -16.66882036	     -0.29092580	      4.22949366	     -0.46614268	     -4.42268172	    -21.05131340	      7.28535275	     -3.29246025	    -44.55323078	     -0.77760057	      4.26493300	     17.70606167	     -2.75545243	    -23.55542093	      8.53331386	     -7.39278944	     -4.03564502	    -10.43971551	      6.17107861	     27.10658832	     89.95437384	      0.00000000	      0.00000000	     11.47584494	      5.64540765	      4.54329516	     29.74499027	     89.95437384	      0.00000000	      0.00000000
